<svg width="53" height="67" viewBox="0 0 53 67" fill="none" xmlns="http://www.w3.org/2000/svg">
<path d="M31.5544 48.9688C31.6103 48.9878 31.6659 49.0066 31.7212 49.025C31.6386 49.0528 31.5552 49.0814 31.471 49.1107C28.9754 49.9793 25.7875 51.5079 23.1477 54.1477C20.5079 56.7875 18.9793 59.9754 18.1107 62.471C18.11 62.473 18.1093 62.4749 18.1086 62.4769C17.3029 60.0937 15.7685 57.0639 12.8523 54.1477C10.0621 51.3576 7.16811 49.8323 4.83582 49C7.16811 48.1677 10.0621 46.6424 12.8523 43.8523C15.7384 40.9662 17.2711 37.9689 18.0835 35.5971C18.9395 38.0547 20.463 41.1675 23.1477 43.8523C25.8879 46.5925 29.0741 48.1229 31.5544 48.9688Z" stroke="#5271FF" stroke-width="2"/>
<path d="M49.9127 12.4783C49.9516 12.4916 49.9902 12.5046 50.0286 12.5174C49.9712 12.5367 49.9133 12.5565 49.8549 12.5769C48.1218 13.1801 45.908 14.2416 44.0748 16.0748C42.2416 17.908 41.1801 20.1218 40.5769 21.8549C40.5764 21.8562 40.5759 21.8576 40.5754 21.8589C40.0159 20.2039 38.9503 18.1 36.9252 16.0748C34.9876 14.1372 32.9779 13.078 31.3582 12.5C32.9779 11.922 34.9876 10.8628 36.9252 8.92518C38.9294 6.92094 39.9938 4.8395 40.558 3.19247C41.1525 4.89913 42.2104 7.06079 44.0748 8.92518C45.9777 10.8281 48.1903 11.8909 49.9127 12.4783Z" stroke="#5271FF" stroke-width="1.38889"/>
</svg>
